<svg width="164" height="60" viewBox="0 0 164 60" fill="none" xmlns="http://www.w3.org/2000/svg">
<path d="M15.3182 0.318092L11.4545 23.5908H5.13635L8.04544 6.13627H7.90907L2.31817 9.18173L3.1818 3.81809L9.49998 0.318092H15.3182ZM36.4261 9.59082L35.6534 14.3181L24.7443 14.3181L25.517 9.59082L36.4261 9.59082ZM38.1591 19.9545L38.9773 15.0454L50.7954 0.318092H55.25L54.1591 6.86355L51.6136 6.86355L45.25 14.8635L45.2045 15.0454H59.0227L58.2045 19.9545H38.1591ZM48.8863 23.5908L49.75 18.4545L50.25 16.3181L52.8863 0.318092H58.7954L54.9318 23.5908H48.8863ZM66.5937 23.5908L70.4574 0.318092H76.7756L75.2756 9.409H83.6392L85.1392 0.318092H91.4574L87.5937 23.5908H81.2756L82.7756 14.4999H74.4119L72.9119 23.5908H66.5937ZM90.5937 23.5908L94.4574 0.318092L104.503 0.318092C106.23 0.318092 107.688 0.632486 108.878 1.26127C110.067 1.89006 110.923 2.79537 111.446 3.97718C111.969 5.159 112.094 6.57567 111.821 8.22718C111.548 9.89385 110.946 11.2992 110.014 12.4431C109.09 13.5795 107.912 14.4431 106.48 15.034C105.056 15.6173 103.457 15.909 101.685 15.909H95.6846L96.5028 10.9999H101.23C101.973 10.9999 102.624 10.909 103.185 10.7272C103.745 10.5378 104.2 10.2423 104.548 9.84082C104.897 9.43173 105.124 8.89385 105.23 8.22718C105.336 7.56052 105.283 7.01885 105.071 6.60218C104.859 6.17794 104.507 5.86734 104.014 5.67036C103.522 5.46582 102.912 5.36355 102.185 5.36355H99.9574L96.9119 23.5908H90.5937ZM106.003 12.909L110.048 23.5908L103.185 23.5908L99.2756 12.909L106.003 12.909ZM127.463 7.59082C127.531 6.84082 127.349 6.2537 126.918 5.82946C126.486 5.39764 125.759 5.18173 124.736 5.18173C124.084 5.18173 123.539 5.25749 123.099 5.409C122.668 5.56052 122.33 5.76885 122.088 6.034C121.853 6.29915 121.705 6.60597 121.645 6.95446C121.577 7.22718 121.58 7.47718 121.656 7.70446C121.74 7.92415 121.895 8.12491 122.122 8.30673C122.357 8.48855 122.664 8.65143 123.043 8.79537C123.429 8.9393 123.887 9.06809 124.418 9.18173L126.236 9.59082C127.478 9.86355 128.52 10.2234 129.361 10.6704C130.209 11.1098 130.876 11.6325 131.361 12.2385C131.846 12.8446 132.164 13.5226 132.315 14.2726C132.474 15.0226 132.478 15.8408 132.327 16.7272C132.069 18.2575 131.474 19.5529 130.543 20.6135C129.611 21.6742 128.395 22.481 126.895 23.034C125.395 23.587 123.66 23.8635 121.69 23.8635C119.675 23.8635 117.963 23.5643 116.554 22.9658C115.152 22.3598 114.137 21.4355 113.509 20.1931C112.887 18.9431 112.736 17.3484 113.054 15.409H119.054C118.963 16.1211 119.039 16.7196 119.281 17.2045C119.524 17.6893 119.914 18.0567 120.452 18.3067C120.99 18.5567 121.66 18.6817 122.463 18.6817C123.145 18.6817 123.728 18.5984 124.213 18.4317C124.698 18.2651 125.08 18.034 125.361 17.7385C125.641 17.4431 125.812 17.106 125.872 16.7272C125.933 16.3787 125.872 16.0681 125.69 15.7954C125.509 15.5226 125.179 15.2764 124.702 15.0567C124.224 14.837 123.569 14.6363 122.736 14.4545L120.509 13.9545C118.531 13.4999 117.039 12.7499 116.031 11.7045C115.024 10.659 114.668 9.22718 114.963 7.409C115.205 5.92415 115.815 4.6287 116.793 3.52264C117.777 2.409 119.027 1.54536 120.543 0.931728C122.065 0.310516 123.751 -8.96454e-05 125.599 -8.96454e-05C127.478 -8.96454e-05 129.05 0.314304 130.315 0.943092C131.588 1.57188 132.501 2.45446 133.054 3.59082C133.615 4.72718 133.766 6.06052 133.509 7.59082H127.463ZM9.09089 59.5908H-1.66446e-05L3.86362 36.3181H12.5909C14.9848 36.3181 16.9848 36.7992 18.5909 37.7613C20.197 38.7234 21.3371 40.0984 22.0113 41.8863C22.6856 43.6742 22.8182 45.8029 22.4091 48.2726C22.0151 50.6514 21.2159 52.6855 20.0113 54.3749C18.8144 56.0643 17.2841 57.356 15.4204 58.2499C13.5644 59.1439 11.4545 59.5908 9.09089 59.5908ZM7.20453 54.2272H9.49998C10.6515 54.2272 11.678 54.0264 12.5795 53.6249C13.4886 53.2158 14.2462 52.534 14.8523 51.5795C15.4659 50.6173 15.9091 49.3029 16.1818 47.6363C16.4394 46.0605 16.4318 44.8446 16.1591 43.9885C15.8863 43.1249 15.3674 42.5264 14.6023 42.1931C13.8371 41.8522 12.8485 41.6817 11.6363 41.6817H9.29544L7.20453 54.2272ZM23.4687 59.5908L27.3324 36.3181H44.1051L43.2415 41.409H32.7869L32.1506 45.409H41.7415L40.8778 50.4999H31.2869L30.6506 54.4999H41.0596L40.196 59.5908H23.4687ZM43.375 59.5908L47.2386 36.3181H53.5568L50.5568 54.4999H59.9659L59.1023 59.5908H43.375ZM71.8381 36.3181L67.9744 59.5908H61.6562L65.5199 36.3181L71.8381 36.3181ZM81.196 36.3181L83.2415 52.7272H83.4233L90.9233 36.3181H98.0596L86.5142 59.5908H77.8778L74.0596 36.3181H81.196ZM96.4375 59.5908L100.301 36.3181H117.074L116.21 41.409H105.756L105.119 45.409H114.71L113.847 50.4999H104.256L103.619 54.4999H114.028L113.165 59.5908H96.4375ZM116.344 59.5908L120.207 36.3181H130.253C131.98 36.3181 133.438 36.6325 134.628 37.2613C135.817 37.8901 136.673 38.7954 137.196 39.9772C137.719 41.159 137.844 42.5757 137.571 44.2272C137.298 45.8939 136.696 47.2992 135.764 48.4431C134.84 49.5795 133.662 50.4431 132.23 51.034C130.806 51.6173 129.207 51.909 127.435 51.909H121.435L122.253 46.9999H126.98C127.723 46.9999 128.374 46.909 128.935 46.7272C129.495 46.5378 129.95 46.2423 130.298 45.8408C130.647 45.4317 130.874 44.8939 130.98 44.2272C131.086 43.5605 131.033 43.0189 130.821 42.6022C130.609 42.1779 130.257 41.8673 129.764 41.6704C129.272 41.4658 128.662 41.3635 127.935 41.3635H125.707L122.662 59.5908H116.344ZM131.753 48.909L135.798 59.5908H128.935L125.026 48.909H131.753ZM139.847 36.3181H146.892L149.847 45.7726H150.074L156.165 36.3181H163.21L152.028 52.2726L150.801 59.5908H144.528L145.756 52.2726L139.847 36.3181Z" fill="url(#paint0_linear_516_9690)"/>
<defs>
<linearGradient id="paint0_linear_516_9690" x1="88.9545" y1="-6.40918" x2="88.9545" y2="65.5908" gradientUnits="userSpaceOnUse">
<stop stop-color="white"/>
<stop offset="1" stop-color="white" stop-opacity="0.5"/>
</linearGradient>
</defs>
</svg>
