<svg width="24" height="23" viewBox="0 0 24 23" fill="none" xmlns="http://www.w3.org/2000/svg">
<path d="M10.4906 0.974488C10.6239 0.683487 10.837 0.437103 11.1045 0.264429C11.372 0.091754 11.6829 0 12.0004 0C12.3179 0 12.6288 0.091754 12.8963 0.264429C13.1639 0.437103 13.3769 0.683487 13.5103 0.974488L15.7896 5.94819C15.9096 6.20986 16.0942 6.43596 16.3257 6.60473C16.5572 6.7735 16.8278 6.87926 17.1115 6.91184L22.5237 7.53271C22.8416 7.56912 23.1425 7.69737 23.3901 7.90208C23.6377 8.10679 23.8216 8.37929 23.9198 8.68689C24.018 8.9945 24.0262 9.32417 23.9435 9.63639C23.8609 9.94861 23.6908 10.2301 23.4537 10.4472L19.4707 14.0935C19.2566 14.2895 19.0967 14.5385 19.0069 14.8159C18.917 15.0933 18.9003 15.3895 18.9582 15.6755L20.0322 20.9819C20.0962 21.297 20.0694 21.6241 19.9548 21.9242C19.8402 22.2244 19.6427 22.485 19.3857 22.6751C19.1288 22.8652 18.8232 22.9769 18.5053 22.9968C18.1874 23.0167 17.8705 22.944 17.5923 22.7874L12.8057 20.0989C12.5581 19.9595 12.2793 19.8864 11.9958 19.8864C11.7124 19.8864 11.4336 19.9595 11.186 20.0989L6.39938 22.7874C6.12117 22.944 5.80428 23.0167 5.48637 22.9968C5.16845 22.9769 4.86287 22.8652 4.60594 22.6751C4.349 22.485 4.1515 22.2244 4.03691 21.9242C3.92232 21.6241 3.89544 21.297 3.95948 20.9819L5.04176 15.6755C5.09974 15.3895 5.08298 15.0933 4.99313 14.8159C4.90327 14.5385 4.74342 14.2895 4.52932 14.0935L0.546289 10.4472C0.309207 10.2301 0.13914 9.94861 0.0564733 9.63639C-0.0261938 9.32417 -0.0179532 8.9945 0.0802075 8.68689C0.178368 8.37929 0.362284 8.10679 0.609908 7.90208C0.857533 7.69737 1.15836 7.56912 1.47633 7.53271L6.88853 6.91184C7.17221 6.87926 7.44283 6.7735 7.67433 6.60473C7.90583 6.43596 8.09044 6.20986 8.21038 5.94819L10.4906 0.974488Z" fill="url(#paint0_linear_1215_6694)"/>
<defs>
<linearGradient id="paint0_linear_1215_6694" x1="12" y1="8.717" x2="-1.02192" y2="31.3325" gradientUnits="userSpaceOnUse">
<stop stop-color="#CC823A"/>
<stop offset="1" stop-color="#48331F"/>
</linearGradient>
</defs>
</svg>
