<svg width="176" height="48" viewBox="0 0 176 48" fill="none" xmlns="http://www.w3.org/2000/svg">
<path d="M134.21 34.7363C135.081 34.7362 135.943 34.9077 136.748 35.2409C137.553 35.5741 138.284 36.0626 138.9 36.6784C139.515 37.2943 140.004 38.0254 140.337 38.83C140.67 39.6347 140.842 40.4971 140.842 41.368C140.842 42.2389 140.67 43.1013 140.337 43.906C140.004 44.7106 139.515 45.4417 138.9 46.0575C138.284 46.6734 137.553 47.1619 136.748 47.4951C135.943 47.8283 135.081 47.9998 134.21 47.9997C133.339 47.9998 132.477 47.8283 131.672 47.4951C130.867 47.1619 130.136 46.6734 129.52 46.0575C128.905 45.4417 128.416 44.7106 128.083 43.906C127.75 43.1013 127.578 42.2389 127.578 41.368C127.578 40.4971 127.75 39.6347 128.083 38.83C128.416 38.0254 128.905 37.2943 129.52 36.6784C130.136 36.0626 130.867 35.5741 131.672 35.2409C132.477 34.9077 133.339 34.7362 134.21 34.7363Z" fill="white" fill-opacity="0.4"/>
<path d="M134.21 17.3691C135.081 17.369 135.943 17.5405 136.748 17.8737C137.553 18.2069 138.284 18.6954 138.9 19.3113C139.515 19.9271 140.004 20.6582 140.337 21.4628C140.67 22.2675 140.842 23.1299 140.842 24.0008C140.842 24.8717 140.67 25.7341 140.337 26.5388C140.004 27.3434 139.515 28.0745 138.9 28.6904C138.284 29.3062 137.553 29.7947 136.748 30.1279C135.943 30.4611 135.081 30.6326 134.21 30.6325C133.339 30.6326 132.477 30.4611 131.672 30.1279C130.867 29.7947 130.136 29.3062 129.52 28.6904C128.905 28.0745 128.416 27.3434 128.083 26.5388C127.75 25.7341 127.578 24.8717 127.578 24.0008C127.578 23.1299 127.75 22.2675 128.083 21.4628C128.416 20.6582 128.905 19.9271 129.52 19.3113C130.136 18.6954 130.867 18.2069 131.672 17.8737C132.477 17.5405 133.339 17.369 134.21 17.3691Z" fill="white" fill-opacity="0.4"/>
<path d="M134.21 5.51688e-08C135.081 -0.000112285 135.943 0.171344 136.748 0.504577C137.553 0.83781 138.284 1.32629 138.9 1.94212C139.515 2.55795 140.004 3.28907 140.337 4.09371C140.67 4.89835 140.842 5.76076 140.842 6.63167C140.842 7.50259 140.67 8.36499 140.337 9.16963C140.004 9.97428 139.515 10.7054 138.9 11.3212C138.284 11.9371 137.553 12.4255 136.748 12.7588C135.943 13.092 135.081 13.2635 134.21 13.2633C133.339 13.2635 132.477 13.092 131.672 12.7588C130.867 12.4255 130.136 11.9371 129.52 11.3212C128.904 10.7054 128.416 9.97428 128.083 9.16963C127.75 8.36499 127.578 7.50259 127.578 6.63167C127.578 5.76076 127.75 4.89835 128.083 4.09371C128.416 3.28907 128.904 2.55795 129.52 1.94212C130.136 1.32629 130.867 0.83781 131.672 0.504577C132.477 0.171344 133.339 -0.000112285 134.21 5.51688e-08Z" fill="white" fill-opacity="0.4"/>
<path d="M151.579 34.7363C152.45 34.7362 153.313 34.9077 154.117 35.2409C154.922 35.5741 155.653 36.0626 156.269 36.6784C156.885 37.2943 157.373 38.0254 157.706 38.83C158.04 39.6347 158.211 40.4971 158.211 41.368C158.211 42.2389 158.04 43.1013 157.706 43.906C157.373 44.7106 156.885 45.4417 156.269 46.0575C155.653 46.6734 154.922 47.1619 154.117 47.4951C153.313 47.8283 152.45 47.9998 151.579 47.9997C150.708 47.9998 149.846 47.8283 149.041 47.4951C148.237 47.1619 147.505 46.6734 146.89 46.0575C146.274 45.4417 145.785 44.7106 145.452 43.906C145.119 43.1013 144.947 42.2389 144.947 41.368C144.947 40.4971 145.119 39.6347 145.452 38.83C145.785 38.0254 146.274 37.2943 146.89 36.6784C147.505 36.0626 148.237 35.5741 149.041 35.2409C149.846 34.9077 150.708 34.7362 151.579 34.7363Z" fill="white" fill-opacity="0.4"/>
<path d="M151.579 17.3691C152.45 17.369 153.313 17.5405 154.117 17.8737C154.922 18.2069 155.653 18.6954 156.269 19.3113C156.885 19.9271 157.373 20.6582 157.706 21.4628C158.04 22.2675 158.211 23.1299 158.211 24.0008C158.211 24.8717 158.04 25.7341 157.706 26.5388C157.373 27.3434 156.885 28.0745 156.269 28.6904C155.653 29.3062 154.922 29.7947 154.117 30.1279C153.313 30.4611 152.45 30.6326 151.579 30.6325C150.708 30.6326 149.846 30.4611 149.041 30.1279C148.237 29.7947 147.505 29.3062 146.89 28.6904C146.274 28.0745 145.785 27.3434 145.452 26.5388C145.119 25.7341 144.947 24.8717 144.947 24.0008C144.947 23.1299 145.119 22.2675 145.452 21.4628C145.785 20.6582 146.274 19.9271 146.89 19.3113C147.505 18.6954 148.237 18.2069 149.041 17.8737C149.846 17.5405 150.708 17.369 151.579 17.3691Z" fill="white" fill-opacity="0.4"/>
<path d="M151.579 5.51688e-08C152.45 -0.000112285 153.313 0.171344 154.117 0.504577C154.922 0.83781 155.653 1.32629 156.269 1.94212C156.885 2.55795 157.373 3.28907 157.706 4.09371C158.04 4.89835 158.211 5.76076 158.211 6.63167C158.211 7.50259 158.04 8.36499 157.706 9.16963C157.373 9.97428 156.885 10.7054 156.269 11.3212C155.653 11.9371 154.922 12.4255 154.117 12.7588C153.313 13.092 152.45 13.2635 151.579 13.2633C150.708 13.2635 149.846 13.092 149.041 12.7588C148.237 12.4255 147.505 11.9371 146.89 11.3212C146.274 10.7054 145.785 9.97428 145.452 9.16963C145.119 8.36499 144.947 7.50259 144.947 6.63167C144.947 5.76076 145.119 4.89835 145.452 4.09371C145.785 3.28907 146.274 2.55795 146.89 1.94212C147.505 1.32629 148.237 0.83781 149.041 0.504577C149.846 0.171344 150.708 -0.000112285 151.579 5.51688e-08Z" fill="white" fill-opacity="0.4"/>
<path d="M168.945 17.3691C169.816 17.369 170.678 17.5405 171.483 17.8737C172.288 18.2069 173.019 18.6954 173.635 19.3113C174.251 19.9271 174.739 20.6582 175.072 21.4628C175.405 22.2675 175.577 23.1299 175.577 24.0008C175.577 24.8717 175.405 25.7341 175.072 26.5388C174.739 27.3434 174.251 28.0745 173.635 28.6904C173.019 29.3062 172.288 29.7947 171.483 30.1279C170.678 30.4611 169.816 30.6326 168.945 30.6325C168.074 30.6326 167.212 30.4611 166.407 30.1279C165.602 29.7947 164.871 29.3062 164.256 28.6904C163.64 28.0745 163.151 27.3434 162.818 26.5388C162.485 25.7341 162.313 24.8717 162.313 24.0008C162.313 23.1299 162.485 22.2675 162.818 21.4628C163.151 20.6582 163.64 19.9271 164.256 19.3113C164.871 18.6954 165.602 18.2069 166.407 17.8737C167.212 17.5405 168.074 17.369 168.945 17.3691Z" fill="white" fill-opacity="0.4"/>
<path d="M118.58 22.9893C117.723 20.8665 116.469 18.9266 114.885 17.2736C113.314 15.6558 111.42 14.3862 109.326 13.5473C107.193 12.6291 104.892 12.1665 102.57 12.1891C101.763 12.198 100.96 12.2839 100.17 12.4457C99.3527 12.5995 98.5499 12.8212 97.7698 13.1085C97.0133 13.4049 96.2928 13.7863 95.6222 14.2452C94.9916 14.6879 94.4279 15.219 93.9485 15.8223V0H85.2641V30.1265C85.2325 32.5928 85.6943 35.0407 86.6223 37.326C87.4799 39.4297 88.7343 41.3487 90.317 42.9784C91.9041 44.5697 93.7945 45.8261 95.8762 46.6731C98.0169 47.5633 100.315 48.0144 102.633 47.9997C104.948 48.0125 107.243 47.5726 109.389 46.7048C111.45 45.8455 113.334 44.6146 114.949 43.0734C116.546 41.4429 117.802 39.5106 118.643 37.3893C120.476 32.76 120.454 27.6023 118.58 22.9893ZM110.528 33.7579C110.116 34.8463 109.482 35.8367 108.665 36.6658C107.875 37.4871 106.945 38.1608 105.918 38.6551C104.877 39.1266 103.745 39.3636 102.602 39.3496C101.458 39.362 100.325 39.1288 99.2792 38.6658C98.2333 38.2028 97.2989 37.5208 96.5391 36.6658C95.7466 35.8178 95.1153 34.8324 94.6763 33.7579C94.2266 32.6005 94.0017 31.3681 94.0135 30.1265C94.0091 28.9575 94.2327 27.799 94.672 26.7157C95.0915 25.6226 95.7247 24.6241 96.5348 23.7787C97.3078 22.9269 98.2276 22.2209 99.2503 21.6945C100.287 21.1667 101.435 20.896 102.598 20.9051C103.741 20.891 104.873 21.1281 105.914 21.5995C106.957 22.0521 107.893 22.7191 108.661 23.5572C109.453 24.416 110.085 25.411 110.524 26.4942C110.999 27.6451 111.235 28.8806 111.218 30.1256C111.239 31.3709 111.004 32.6073 110.527 33.7579H110.528Z" fill="white"/>
<path d="M76.3913 17.1151C74.8151 15.5261 72.9206 14.2885 70.8321 13.4836C68.6902 12.6009 66.392 12.1604 64.0755 12.1888C61.7536 12.1692 59.4529 12.6317 57.3189 13.5469C55.2573 14.4594 53.3748 15.732 51.7597 17.3049C50.1628 18.9355 48.9068 20.8677 48.0649 22.989C47.1398 25.2534 46.678 27.6802 46.7068 30.1261C46.681 32.5512 47.1428 34.9568 48.0649 37.2C48.8974 39.3125 50.1452 41.2366 51.7344 42.8584C53.3236 44.4802 55.222 45.7668 57.3172 46.642C59.4571 47.5379 61.7539 47.9993 64.0738 47.9993C66.3937 47.9993 68.6905 47.5379 70.8304 46.642C72.8899 45.7258 74.7718 44.4537 76.3896 42.884C77.9797 41.2481 79.2348 39.3172 80.0844 37.2C81.0036 34.956 81.4653 32.551 81.4425 30.1261C81.4828 27.6179 81.021 25.127 80.0844 22.8C79.2627 20.6685 78.0048 18.7322 76.3913 17.1151ZM72.0295 33.9149C71.6184 35.0112 70.9717 36.0038 70.1351 36.8228C69.3355 37.6226 68.393 38.2652 67.3563 38.7172C66.3107 39.1681 65.1786 39.3836 64.0404 39.3484C62.8846 39.3614 61.741 39.111 60.6964 38.6163C59.6613 38.1516 58.736 37.4737 57.9809 36.6269C57.2086 35.7694 56.5889 34.7859 56.1489 33.7191C55.6947 32.5638 55.48 31.3284 55.5177 30.0876C55.495 28.8011 55.7312 27.5231 56.2122 26.3296C56.612 25.2353 57.248 24.2425 58.075 23.4218C58.8519 22.6095 59.7867 21.9648 60.8221 21.5274C61.8797 21.0792 63.0214 20.8639 64.1696 20.8962C65.3124 20.8821 66.4443 21.1192 67.4855 21.5906C68.5375 21.9971 69.4787 22.6462 70.2326 23.485C71.0251 24.333 71.6563 25.3185 72.0953 26.3929C72.5834 27.5835 72.8095 28.8652 72.7582 30.1509C72.7871 31.4421 72.5398 32.7245 72.0329 33.9123L72.0295 33.9149Z" fill="white"/>
<path d="M8.43121 47.3689V25.8634C8.41986 25.2897 8.52731 24.7198 8.7468 24.1897C8.95838 23.6708 9.27023 23.1988 9.6645 22.8007C10.0458 22.401 10.5091 22.0885 11.0227 21.8847C11.5526 21.661 12.1212 21.543 12.6964 21.5375C13.2723 21.5366 13.8422 21.6548 14.3702 21.8847C14.8953 22.084 15.3698 22.3967 15.76 22.8007C16.1612 23.1931 16.4741 23.6666 16.6777 24.1897C16.9014 24.7196 17.0194 25.2882 17.0249 25.8634V47.3689H25.646V25.8634C25.6346 25.2897 25.7421 24.7198 25.9616 24.1897C26.1725 23.6707 26.4838 23.1984 26.8776 22.7999C27.2589 22.4001 27.7222 22.0876 28.2357 21.8839C28.7657 21.6601 29.3343 21.5422 29.9095 21.5366C30.4854 21.5357 31.0552 21.6539 31.5832 21.8839C32.1083 22.0831 32.5829 22.3959 32.973 22.7999C33.3738 23.1927 33.6861 23.6665 33.889 24.1897C34.1128 24.7196 34.2307 25.2882 34.2363 25.8634V47.3689H42.9471V26.1482C42.865 23.7915 42.206 21.491 41.0281 19.4482C39.8501 17.4054 38.1891 15.6828 36.1906 14.4312C35.8317 14.2333 35.4629 14.054 35.0855 13.8941C33.5018 13.2061 31.79 12.8621 30.0634 12.8849C29.2687 12.88 28.4754 12.9539 27.6952 13.1055C26.8921 13.2297 26.1073 13.4523 25.3586 13.7683C24.5966 14.0925 23.8757 14.5059 23.211 14.9999C22.5094 15.5238 21.8924 16.1523 21.3816 16.8635C20.3567 15.5015 18.9817 14.4428 17.4029 13.8C15.9368 13.2127 14.3716 12.9125 12.7922 12.9156C11.2464 12.9122 9.71393 13.2024 8.2764 13.7709C7.0902 14.2346 5.97423 14.8609 4.96054 15.6319C2.29021 17.9472 0.531657 21.1378 0 24.6318V47.3689H8.43121Z" fill="white"/>
</svg>
