<svg width="24" height="24" viewBox="0 0 24 24" fill="none" xmlns="http://www.w3.org/2000/svg">
<path d="M7.38983 15.2204C7.38983 16.1564 6.63097 16.9153 5.69492 16.9153C4.75886 16.9153 4 16.1564 4 15.2204V12.1695C4 11.2335 4.75886 10.4746 5.69492 10.4746C6.63097 10.4746 7.38983 11.2335 7.38983 12.1695V15.2204Z" stroke="#0A243F" stroke-width="1.6" stroke-miterlimit="10" stroke-linecap="round" stroke-linejoin="round"/>
<path d="M20.9484 15.2204C20.9484 16.1564 20.1896 16.9153 19.2535 16.9153C18.3174 16.9153 17.5586 16.1564 17.5586 15.2204V12.1695C17.5586 11.2335 18.3174 10.4746 19.2535 10.4746C20.1896 10.4746 20.9484 11.2335 20.9484 12.1695V15.2204Z" stroke="#0A243F" stroke-width="1.6" stroke-miterlimit="10" stroke-linecap="round" stroke-linejoin="round"/>
<path d="M4 12.1695V10.4746C4 5.79419 7.79419 2 12.4746 2C17.155 2 20.9492 5.79419 20.9492 10.4746V12.1695" stroke="#0A243F" stroke-width="1.6" stroke-miterlimit="10" stroke-linecap="round" stroke-linejoin="round"/>
<path d="M20.9476 15.2207V16.9156C20.9476 18.7878 19.43 20.3054 17.5578 20.3054H14.168" stroke="#0A243F" stroke-width="1.6" stroke-miterlimit="10" stroke-linecap="round" stroke-linejoin="round"/>
<path d="M12.4762 21.9992C13.4122 21.9992 14.1711 21.2404 14.1711 20.3043C14.1711 19.3682 13.4122 18.6094 12.4762 18.6094C11.5401 18.6094 10.7812 19.3682 10.7812 20.3043C10.7812 21.2404 11.5401 21.9992 12.4762 21.9992Z" stroke="#0A243F" stroke-width="1.6" stroke-miterlimit="10" stroke-linecap="round" stroke-linejoin="round"/>
</svg>
