<svg width="48" height="48" viewBox="0 0 48 48" fill="none" xmlns="http://www.w3.org/2000/svg">
<path d="M42 24C42 14.0589 33.9411 6 24 6C14.0589 6 6 14.0589 6 24C6 33.9411 14.0589 42 24 42V44C12.9543 44 4 35.0457 4 24C4 12.9543 12.9543 4 24 4C35.0457 4 44 12.9543 44 24C44 35.0457 35.0457 44 24 44V42C33.9411 42 42 33.9411 42 24Z" fill="url(#paint0_linear_1215_6713)"/>
<path d="M36 24C36 17.3726 30.6274 12 24 12C17.3726 12 12 17.3726 12 24C12 30.6274 17.3726 36 24 36V38L23.6387 37.9951C16.1938 37.8065 10.1935 31.8062 10.0049 24.3613L10 24C10 16.268 16.268 10 24 10L24.3613 10.0049C31.9263 10.1965 38 16.3888 38 24L37.9951 24.3613C37.8035 31.9263 31.6112 38 24 38V36C30.6274 36 36 30.6274 36 24Z" fill="url(#paint1_linear_1215_6713)"/>
<path d="M23.4558 14.4852C23.7579 13.8393 24.2454 13.8372 24.5476 14.4852L26.7487 19.2059L31.7038 19.9393C32.387 20.0414 32.5369 20.5271 32.0456 21.0311L28.445 24.6815L29.3112 29.8573C29.43 30.5657 29.0321 30.8658 28.4216 30.5262L24.0036 28.0653L19.5817 30.5262C18.9714 30.8655 18.5733 30.5676 18.6921 29.8573L19.5593 24.6815L15.9587 21.0311C15.4629 20.529 15.6171 20.0393 16.3005 19.9393L21.2556 19.2059L23.4558 14.4852ZM22.613 21.0272L19.2536 21.5233L21.7009 24.0047L21.1354 27.3719L23.0319 26.3182L24.0046 25.7762L26.8669 27.37L26.3034 24.0047L28.7497 21.5233L25.3903 21.0272L24.0017 18.0477L22.613 21.0272Z" fill="url(#paint2_linear_1215_6713)"/>
<defs>
<linearGradient id="paint0_linear_1215_6713" x1="24" y1="4" x2="24" y2="44" gradientUnits="userSpaceOnUse">
<stop stop-color="#996E37"/>
<stop offset="0.504808" stop-color="#FFB75C"/>
<stop offset="1" stop-color="#996E37"/>
</linearGradient>
<linearGradient id="paint1_linear_1215_6713" x1="24" y1="10" x2="24" y2="38" gradientUnits="userSpaceOnUse">
<stop stop-color="#996E37"/>
<stop offset="0.504808" stop-color="#FFB75C"/>
<stop offset="1" stop-color="#996E37"/>
</linearGradient>
<linearGradient id="paint2_linear_1215_6713" x1="24.0011" y1="14" x2="24.0011" y2="30.6663" gradientUnits="userSpaceOnUse">
<stop stop-color="#996E37"/>
<stop offset="0.504808" stop-color="#FFB75C"/>
<stop offset="1" stop-color="#996E37"/>
</linearGradient>
</defs>
</svg>
